<?xml version="1.0" encoding="UTF-8" standalone="no"?>
<!-- Created with Inkscape (http://www.inkscape.org/) -->

<svg
   xmlns:dc="http://purl.org/dc/elements/1.1/"
   xmlns:cc="http://creativecommons.org/ns#"
   xmlns:rdf="http://www.w3.org/1999/02/22-rdf-syntax-ns#"
   xmlns:svg="http://www.w3.org/2000/svg"
   xmlns="http://www.w3.org/2000/svg"
   xmlns:inkscape="http://www.inkscape.org/namespaces/inkscape"
   version="1.1"
   width="321.27499"
   height="107.825"
   id="svg2"
   xml:space="preserve"><metadata
     id="metadata8"><rdf:RDF><cc:Work
         rdf:about=""><dc:format>image/svg+xml</dc:format><dc:type
           rdf:resource="http://purl.org/dc/dcmitype/StillImage" /></cc:Work></rdf:RDF></metadata><defs
     id="defs6"><clipPath
       id="clipPath18"><path
         d="m 0,0 2570,0 0,862.598 -2570,0 L 0,0 z"
         inkscape:connector-curvature="0"
         id="path20" /></clipPath></defs><g
     transform="matrix(1.25,0,0,-1.25,0,107.825)"
     id="g10"><g
       transform="scale(0.1,0.1)"
       id="g12"><g
         id="g14"><g
           clip-path="url(#clipPath18)"
           id="g16"><path
             d="m 2462.31,203.809 -95.8,-95.801 -2235.311,0 -95.7967,95.801 0,527.597 95.7967,95.782 2235.311,0 95.8,-95.782 0,-527.597 z m -81.11,658.789 -2264.598,0 L 0,746.094 0,189.199 189.102,0 2453.7,0 l 116.5,116.504 0,556.992 -189,189.102"
             inkscape:connector-curvature="0"
             id="path22"
             style="fill:#231f20;fill-opacity:1;fill-rule:nonzero;stroke:none" /><path
             d="m 518.461,322.539 c -19.273,0 -38.949,2.051 -56.582,6.152 l 3.281,59.036 c 15.582,-5.735 38.133,-10.247 58.223,-10.247 23.371,0 40.179,9.836 40.179,29.524 0,47.148 -110.292,22.957 -110.292,115.625 0,52.07 40.593,86.504 109.882,86.504 14.758,0 33.211,-1.641 50.434,-4.922 l -3.691,-55.352 c -15.583,4.508 -32.801,7.383 -49.204,7.383 -26.648,0 -38.949,-11.484 -38.949,-27.051 0,-43.058 110.289,-26.66 110.289,-113.164 0,-53.711 -43.047,-93.488 -113.57,-93.488"
             inkscape:connector-curvature="0"
             id="path24"
             style="fill:#231f20;fill-opacity:1;fill-rule:nonzero;stroke:none" /><path
             d="m 891.152,323.77 c -102.09,0 -129.558,69.289 -129.558,132.023 0,89.785 48.789,150.469 140.218,150.469 19.274,0 39.36,-2.461 56.583,-6.977 l -7.379,-57.801 c -15.582,4.504 -33.211,7.375 -50.434,7.375 -44.687,0 -68.879,-32.382 -68.879,-82.406 0,-54.527 22.141,-84.461 72.16,-84.461 14.352,0 35.258,3.692 48.379,9.836 l 7.383,-56.992 C 939.531,327.871 914.934,323.77 891.152,323.77"
             inkscape:connector-curvature="0"
             id="path26"
             style="fill:#231f20;fill-opacity:1;fill-rule:nonzero;stroke:none" /><path
             d="m 1104.31,327.461 63.9609,0 0,276.75 -63.9609,0 0,-276.75 z"
             inkscape:connector-curvature="0"
             id="path28"
             style="fill:#231f20;fill-opacity:1;fill-rule:nonzero;stroke:none" /><path
             d="m 1404.77,554.191 c -4.51,0 -9.02,0 -13.53,-0.41 l 0,-81.172 c 4.1,-0.41 7.79,-0.824 11.06,-0.824 26.66,0.414 46.75,15.578 46.75,42.641 0,23.367 -12.72,39.765 -44.28,39.765 z M 1406,418.898 c -3.29,0 -9.02,0 -14.76,0.411 l 0,-91.848 -63.96,0 0,276.75 c 23.77,1.23 50.01,2.051 78.72,2.051 70.51,0 109.06,-31.977 109.06,-88.965 0,-53.711 -38.55,-98.399 -109.06,-98.399"
             inkscape:connector-curvature="0"
             id="path30"
             style="fill:#231f20;fill-opacity:1;fill-rule:nonzero;stroke:none" /><path
             d="m 1649.54,327.461 63.9609,0 0,276.75 -63.9609,0 0,-276.75 z"
             inkscape:connector-curvature="0"
             id="path32"
             style="fill:#231f20;fill-opacity:1;fill-rule:nonzero;stroke:none" /><path
             d="m 1984.5,551.32 c -33.21,0 -64.79,-25.82 -64.79,-83.632 0,-53.301 19.69,-86.926 63.56,-86.926 30.33,0 66.01,22.55 66.01,85.285 0,55.762 -22.56,85.273 -64.78,85.273 z m -4.92,-229.191 c -85.69,0 -127.5,53.301 -127.5,140.226 0,90.196 61.89,147.188 137.34,147.188 72.99,0 127.5,-42.227 127.5,-139.395 0,-91.027 -60.67,-148.019 -137.34,-148.019"
             inkscape:connector-curvature="0"
             id="path34"
             style="fill:#231f20;fill-opacity:1;fill-rule:nonzero;stroke:none" /></g></g></g></g></svg>