<?xml version="1.0"?>
<svg width="107.825" height="321.27499" xmlns="http://www.w3.org/2000/svg">
 <metadata id="metadata8">image/svg+xml</metadata>
 <defs>
  <clipPath id="clipPath18">
   <path id="path20" d="m-856,-853.799438l2570,0l0,862.598022l-2570,0l0,-862.598022z"/>
  </clipPath>
 </defs>
 <g>
  <title>background</title>
  <rect fill="none" id="canvas_background" height="323.27499" width="109.825" y="-1" x="-1"/>
 </g>
 <g>
  <title>Layer 1</title>
  <g id="g10" transform="rotate(-90 53.91238403320316,160.63755798339847) matrix(1.25,0,0,-1.25,0,107.825) ">
   <g id="g12" transform="translate(0.21993407607078552,0) scale(0.10000000149011612) ">
    <g id="g14">
     <g id="g16" clip-path="url(#clipPath18)">
      <path fill="#231f20" fill-rule="nonzero" id="path22" d="m1606.310059,-649.990417l-95.800049,-95.801025l-2235.310974,0l-95.796692,95.801025l0,527.596985l95.796692,95.781982l2235.310974,0l95.800049,-95.781982l0,-527.596985zm-81.110107,658.789001l-2264.597778,0l-116.602173,-116.504028l0,-556.89502l189.10199,-189.198975l2264.597961,0l116.5,116.504028l0,556.991943l-189,189.102051"/>
      <path fill="#231f20" fill-rule="nonzero" id="path24" d="m-337.539001,-531.260437c-19.27301,0 -38.949005,2.050964 -56.582001,6.151978l3.281006,59.036011c15.582001,-5.734985 38.132996,-10.246979 58.222992,-10.246979c23.371033,0 40.179016,9.835999 40.179016,29.523987c0,47.14801 -110.292023,22.957001 -110.292023,115.625031c0,52.069946 40.593018,86.503967 109.881989,86.503967c14.757996,0 33.210999,-1.640991 50.434021,-4.921997l-3.690979,-55.35199c-15.583008,4.507996 -32.801025,7.382996 -49.204041,7.382996c-26.647949,0 -38.948975,-11.484009 -38.948975,-27.051025c0,-43.057983 110.289001,-26.659973 110.289001,-113.163971c0,-53.710999 -43.046997,-93.488007 -113.570007,-93.488007"/>
      <path fill="#231f20" fill-rule="nonzero" id="path26" d="m35.151978,-530.02948c-102.090027,0 -129.557983,69.289032 -129.557983,132.02301c0,89.785034 48.789001,150.468994 140.217957,150.468994c19.274048,0 39.360046,-2.460999 56.583008,-6.97699l-7.378967,-57.800964c-15.582031,4.503967 -33.210999,7.375 -50.434021,7.375c-44.687012,0 -68.878967,-32.382019 -68.878967,-82.406036c0,-54.526978 22.140991,-84.460999 72.159973,-84.460999c14.35199,0 35.257996,3.692017 48.379028,9.835999l7.382996,-56.992035c-20.093994,-6.964966 -44.690979,-11.065979 -68.473022,-11.065979"/>
      <path fill="#231f20" fill-rule="nonzero" id="path28" d="m248.310059,-526.33844l63.960938,0l0,276.75l-63.960938,0l0,-276.75z"/>
      <path fill="#231f20" fill-rule="nonzero" id="path30" d="m548.77002,-299.608459c-4.51001,0 -9.02002,0 -13.530029,-0.409973l0,-81.172028c4.099976,-0.410004 7.790039,-0.824005 11.060059,-0.824005c26.659912,0.414001 46.75,15.578003 46.75,42.640991c0,23.367004 -12.719971,39.765015 -44.280029,39.765015zm1.22998,-135.292969c-3.290039,0 -9.02002,0 -14.76001,0.411011l0,-91.848022l-63.959961,0l0,276.75c23.77002,1.230042 50.01001,2.051025 78.719971,2.051025c70.51001,0 109.060059,-31.97699 109.060059,-88.965027c0,-53.710999 -38.550049,-98.398987 -109.060059,-98.398987"/>
      <path fill="#231f20" fill-rule="nonzero" id="path32" d="m793.540039,-526.33844l63.960938,0l0,276.75l-63.960938,0l0,-276.75z"/>
      <path fill="#231f20" fill-rule="nonzero" id="path34" d="m1128.5,-302.479431c-33.209961,0 -64.790039,-25.820007 -64.790039,-83.632019c0,-53.300995 19.690063,-86.925995 63.560059,-86.925995c30.329956,0 66.01001,22.550018 66.01001,85.285004c0,55.762024 -22.560059,85.27301 -64.780029,85.27301zm-4.920044,-229.190979c-85.689941,0 -127.5,53.300995 -127.5,140.225983c0,90.196014 61.890015,147.188019 137.340088,147.188019c72.989868,0 127.499878,-42.22699 127.499878,-139.39502c0,-91.027008 -60.669922,-148.018982 -137.339966,-148.018982"/>
     </g>
    </g>
   </g>
  </g>
 </g>
</svg>